<!--?xml version="1.0" encoding="utf-8"?-->
<!-- Generator: Adobe Illustrator 18.1.1, SVG Export Plug-In . SVG Version: 6.00 Build 0)  -->

<svg version="1.1" id="_x32_" xmlns="http://www.w3.org/2000/svg" xmlns:xlink="http://www.w3.org/1999/xlink" x="0px" y="0px" viewBox="0 0 512 512" style="width: 256px; height: 256px; opacity: 1;" xml:space="preserve">
<style type="text/css">
	.st0{fill:#4B4B4B;}
</style>
<g>
	<path class="st0" d="M368.395,56.113C338.596,19.919,298.677,0,256,0c-42.678,0-82.597,19.919-112.396,56.113
		c-28.992,35.186-44.951,81.79-44.951,131.202c0,43.718,11.58,84.364,33.5,117.516c19.274,29.186,45.903,50.621,76.024,61.516
		l-5,90.226l-0.008,0.089v0.088c-0.645,14.346,4.686,28.532,14.613,38.911C227.709,506.048,241.637,512,256,512
		c14.362,0,28.291-5.952,38.218-16.338c9.928-10.379,15.25-24.565,14.613-38.911v-0.088l-0.008-0.089l-5-90.226
		c30.122-10.895,56.75-32.33,76.032-61.516c21.904-33.153,33.492-73.798,33.492-117.516
		C413.347,137.903,397.387,91.299,368.395,56.113z M285.604,353.613l5.758,103.92c0.435,9.661-3.105,19.064-9.774,26.04
		c-6.686,6.992-15.927,10.944-25.588,10.944c-9.661,0-18.903-3.952-25.589-10.944c-6.677-6.976-10.209-16.379-9.774-26.04
		l5.758-103.92c-65.419-15.984-110.257-84.363-110.257-166.298c0-93.798,62.621-169.83,139.862-169.83
		c77.234,0,139.863,76.032,139.863,169.83C395.863,269.25,351.015,337.629,285.604,353.613z" style="fill: rgb(255, 255, 255);"></path>
	<path class="st0" d="M332.291,93.404c-9.63-12.121-21.146-22.032-34.065-28.952C285.323,57.549,271,53.694,256,53.694
		s-29.322,3.855-42.234,10.758c-19.371,10.363-35.605,27.468-47.016,48.742c-11.404,21.29-18.017,46.774-18.025,74.12
		c0.008,37.557,11.218,70.758,30.275,94.798c9.524,12.016,21.04,21.734,34.056,28.436c13.024,6.718,27.548,10.387,42.944,10.387
		c15.395,0,29.919-3.669,42.944-10.387c19.532-10.065,35.645-26.888,46.823-48.113c11.185-21.242,17.492-46.951,17.499-75.121
		C363.258,150.847,351.524,117.694,332.291,93.404z M323.217,274.347c-8.524,10.75-18.677,19.266-30,25.089
		c-11.314,5.847-23.815,9-37.218,9c-13.404,0-25.903-3.153-37.218-9c-16.976-8.725-31.339-23.532-41.5-42.823
		c-10.152-19.266-16.064-43-16.064-69.298c-0.007-33.782,10.928-64.298,28.267-86.153c8.678-10.935,18.927-19.677,30.177-25.693
		s23.484-9.274,36.339-9.274c12.855,0,25.089,3.258,36.346,9.274c16.863,9.016,31.5,24.242,41.887,43.629
		c10.412,19.388,16.548,42.888,16.548,68.218C350.782,222.387,340.266,252.871,323.217,274.347z" style="fill: rgb(255, 255, 255);"></path>
	<path class="st0" d="M256,440.815c-4.984-0.016-9.549,2.032-12.798,5.298c-3.274,3.274-5.306,7.823-5.306,12.806
		c0,4.984,2.032,9.548,5.306,12.807c3.25,3.274,7.815,5.306,12.798,5.306c4.976,0,9.548-2.032,12.798-5.306
		c3.274-3.259,5.307-7.823,5.307-12.807c0-4.984-2.032-9.532-5.307-12.806C265.548,442.847,260.975,440.799,256,440.815z
		 M259.967,462.903c-1.04,1.017-2.395,1.63-3.967,1.645c-1.573-0.016-2.927-0.628-3.976-1.645c-1.024-1.032-1.637-2.403-1.637-3.984
		c0-1.572,0.613-2.936,1.637-3.968c1.049-1.032,2.403-1.653,3.976-1.653c1.572,0,2.928,0.621,3.967,1.653
		c1.032,1.032,1.646,2.396,1.646,3.968C261.613,460.5,260.999,461.871,259.967,462.903z" style="fill: rgb(255, 255, 255);"></path>
	<polygon class="st0" points="241.225,130.017 235.927,124.726 197.217,163.435 202.516,168.726 	" style="fill: rgb(255, 255, 255);"></polygon>
	<polygon class="st0" points="195.967,210.887 201.265,216.194 284.927,132.516 279.637,127.226 	" style="fill: rgb(255, 255, 255);"></polygon>
</g>
</svg>
