<!--?xml version="1.0" encoding="utf-8"?-->
<!-- Generator: Adobe Illustrator 18.1.1, SVG Export Plug-In . SVG Version: 6.00 Build 0)  -->

<svg version="1.1" id="_x32_" xmlns="http://www.w3.org/2000/svg" xmlns:xlink="http://www.w3.org/1999/xlink" x="0px" y="0px" viewBox="0 0 512 512" style="width: 256px; height: 256px; opacity: 1;" xml:space="preserve">
<style type="text/css">
	.st0{fill:#4B4B4B;}
</style>
<g>
	<path class="st0" d="M507.342,115.223c-4.474-10.571-11.884-19.57-21.424-26.028c-9.789-6.617-21.214-10.112-33.104-10.112H59.186
		c-7.994,0-15.744,1.572-23.039,4.657c-10.582,4.478-19.581,11.884-26.032,21.428C3.495,114.972-0.003,126.418,0,138.273v235.454
		c0,7.987,1.564,15.738,4.658,23.043c4.474,10.586,11.884,19.584,21.425,26.022c9.792,6.623,21.238,10.126,33.104,10.126h393.627
		c7.976,0,15.726-1.572,23.039-4.658c10.578-4.471,19.581-11.891,26.028-21.436c6.624-9.788,10.122-21.234,10.119-33.097V138.273
		C512,130.286,510.436,122.535,507.342,115.223z M483.632,373.727c0,4.155-0.814,8.188-2.418,11.985
		c-2.332,5.518-6.196,10.211-11.18,13.57c-5.088,3.43-11.044,5.254-17.219,5.261H59.186c-4.158,0-8.191-0.811-11.995-2.418
		c-5.508-2.325-10.198-6.193-13.567-11.181c-3.434-5.088-5.253-11.045-5.256-17.216V138.273c0-4.162,0.814-8.202,2.418-11.999
		c2.325-5.504,6.19-10.197,11.18-13.57c5.092-3.43,11.044-5.246,17.219-5.246h393.627c4.162,0,8.199,0.811,11.991,2.404
		c5.508,2.332,10.201,6.2,13.57,11.181c3.434,5.087,5.253,11.051,5.256,17.23V373.727z" style="fill: rgb(255, 255, 255);"></path>
	<path class="st0" d="M129.08,261.217c24.834,0,44.963-20.13,44.963-44.96c0-24.837-20.129-44.966-44.963-44.966
		c-24.83,0-44.96,20.129-44.96,44.966C84.121,241.088,104.25,261.217,129.08,261.217z" style="fill: rgb(255, 255, 255);"></path>
	<path class="st0" d="M167.154,268.107c-0.976-0.976-5.411-1.22-6.613-0.488c-9.167,5.655-19.925,8.956-31.46,8.956
		c-11.539,0-22.293-3.301-31.458-8.956c-1.209-0.732-5.637-0.488-6.616,0.488c-7.546,7.549-17.496,24.399-19.502,36.427
		c-4.938,29.609,26.692,40.302,57.576,40.302c30.886,0,62.512-10.693,57.579-40.302
		C184.654,292.506,174.707,275.656,167.154,268.107z" style="fill: rgb(255, 255, 255);"></path>
	<rect x="233.244" y="180.584" class="st0" width="202.124" height="22.49" style="fill: rgb(255, 255, 255);"></rect>
	<rect x="233.244" y="244.087" class="st0" width="202.124" height="22.497" style="fill: rgb(255, 255, 255);"></rect>
	<rect x="233.244" y="307.598" class="st0" width="125.392" height="22.49" style="fill: rgb(255, 255, 255);"></rect>
</g>
</svg>
